<svg width="21" height="20" viewBox="0 0 21 20" fill="none" xmlns="http://www.w3.org/2000/svg">
<path d="M16.3235 8.38891H12.4192V4.5278C12.4192 4.1005 12.2475 3.69071 11.942 3.38857C11.6365 3.08643 11.2221 2.91669 10.79 2.91669C10.358 2.91669 9.94359 3.08643 9.63807 3.38857C9.33255 3.69071 9.16091 4.1005 9.16091 4.5278V8.38891H5.25658C4.82451 8.38891 4.41013 8.55865 4.10461 8.86079C3.79908 9.16294 3.62744 9.57273 3.62744 10C3.62744 10.4273 3.79908 10.8371 4.10461 11.1392C4.41013 11.4414 4.82451 11.6111 5.25658 11.6111H9.16091V15.4722C9.16091 15.8995 9.33255 16.3093 9.63807 16.6115C9.94359 16.9136 10.358 17.0834 10.79 17.0834C11.2221 17.0834 11.6365 16.9136 11.942 16.6115C12.2475 16.3093 12.4192 15.8995 12.4192 15.4722V11.6111H16.3235C16.7556 11.6111 17.17 11.4414 17.4755 11.1392C17.781 10.8371 17.9527 10.4273 17.9527 10C17.9527 9.57273 17.781 9.16294 17.4755 8.86079C17.17 8.55865 16.7556 8.38891 16.3235 8.38891Z" fill="white"/>
</svg>
