<svg width="81" height="27" viewBox="0 0 81 27" fill="none" xmlns="http://www.w3.org/2000/svg">
<path d="M69.9035 12.1335C68.5392 12.3772 64.9483 12.5175 64.9483 12.5175L64.4935 13.6253C64.4935 13.6253 66.2842 13.5071 67.5917 13.6105C67.5917 13.6105 68.0181 13.5736 68.0654 13.9872C68.0742 14.2534 68.0615 14.5198 68.0275 14.7848C68.0275 14.7848 67.9991 15.0359 67.5443 15.095C67.0517 15.1614 63.6787 15.2574 63.6787 15.2574L63.1292 16.6976C63.1292 16.6976 62.9302 17.0299 63.385 16.9339C63.8113 16.8453 67.3454 16.3283 67.8096 16.4022C68.3023 16.4982 68.8518 17.0077 68.6908 17.4804C68.5013 18.0565 64.9767 19.8142 62.826 19.6886C62.826 19.6886 61.6985 19.7477 60.7416 18.5587C59.851 17.4287 61.0827 15.2796 61.0827 15.2796C61.0827 15.2796 60.5237 14.2752 60.9311 13.9429C60.9311 13.9429 61.1774 13.773 61.8785 13.7287L62.7407 12.3329C62.7407 12.3329 61.7554 12.3846 61.1679 11.8233C60.6184 11.2842 60.5805 11.0405 60.9974 10.8928C61.4427 10.7229 65.5452 10.1395 68.3686 10.2133C68.3686 10.2133 69.354 10.1395 70.1972 11.4688C70.1877 11.4688 70.6046 12.0079 69.9035 12.1335ZM59.2825 17.4952C58.9225 18.1599 57.9655 18.8688 56.7812 18.4257C55.5969 17.9826 53.7399 15.0063 53.7399 15.0063C53.7399 15.0063 53.0293 13.8986 52.8966 13.9207C52.8966 13.9207 52.745 13.7065 52.6503 14.9177C52.5555 16.1289 52.6692 18.4848 52.0534 18.8541C51.466 19.2233 50.7554 19.0756 50.3858 18.6399C50.0542 18.2115 49.9121 17.1924 50.0921 15.4051C50.3101 13.6179 50.8406 11.7125 51.5228 11.1143C52.205 10.5161 52.7545 10.9518 52.9629 11.1069C52.9629 11.1069 53.8725 11.7494 55.379 13.6401L55.6442 13.9872C55.6442 13.9872 57.0086 15.7744 57.1507 15.767C57.1507 15.767 57.2644 15.8483 57.3591 15.7892C57.5013 15.7596 57.4444 15.1836 57.4444 15.1836C57.4444 15.1836 57.1602 13.2413 55.919 9.94744C55.919 9.94744 55.7295 9.53386 55.8622 9.14983C55.9948 8.7658 56.4875 8.94304 56.4875 8.94304C56.4875 8.94304 58.4203 9.69634 59.3488 12.1482C60.2678 14.6223 59.6425 16.8305 59.2825 17.4952ZM49.7889 11.1955C49.6279 11.4466 49.5331 11.8085 48.7183 11.9045C48.7183 11.9045 40.9207 12.3181 40.5512 12.7465C40.5512 12.7465 40.2765 12.9976 40.7028 13.0714C41.1292 13.1453 42.8914 13.3225 43.7442 13.3594C44.6537 13.3668 47.7235 13.389 48.8225 14.4598C48.8225 14.4598 49.4763 14.9694 49.4479 16.1215C49.4194 17.3032 49.1541 17.7167 48.5667 18.1451C47.9509 18.5439 42.6641 20.3902 39.2532 17.5543C39.2532 17.5543 37.6804 16.188 39.7933 15.154C39.7933 15.154 41.3187 14.4377 45.1938 15.2796C45.1938 15.2796 46.3686 15.6119 46.3118 15.9443C46.2454 16.2988 45.3454 16.6754 44.0379 16.6533C42.7683 16.6237 41.8398 16.1511 42.0198 16.2249C42.1903 16.2766 40.6554 15.6489 40.1817 16.0772C39.708 16.4686 39.8217 16.7123 40.2859 16.9561C41.4703 17.4804 46.0465 17.2958 47.4108 16.1141C47.4108 16.1141 47.9509 15.6341 47.1266 15.2427C46.3023 14.8734 43.9431 14.6519 43.0241 14.6149C42.143 14.578 38.8647 14.6223 38.391 13.9429C38.391 13.9429 37.9173 13.485 38.4384 12.1852C38.9879 10.8263 42.8062 10.3019 44.4548 10.1838C44.4548 10.1838 48.9931 10.0582 49.8268 10.782C49.8832 10.9185 49.8696 11.0667 49.7889 11.1955ZM36.9035 19.1642C36.354 19.4818 35.1886 19.3415 34.857 18.987C34.5254 18.6694 34.4117 17.4066 34.478 15.4273C34.5443 13.4259 34.6012 10.9444 35.1507 10.553C35.7381 10.1542 36.0982 10.5013 36.3256 10.7746C36.5719 11.0405 36.8656 11.3359 36.9319 11.9636C36.9982 12.5914 37.1783 15.8852 37.1783 15.8852C37.1783 15.8852 37.4246 18.8541 36.9035 19.1642ZM38.0878 8.54424C36.4866 8.95781 35.3876 8.81749 34.4591 8.50731C34.0517 9.0612 33.8148 9.23107 33.5021 9.26799C33.0473 9.30492 32.6399 8.73625 32.5641 8.55162C32.4883 8.4113 32.2704 8.17497 32.5357 7.6137C31.6262 6.97856 31.5598 6.12187 31.7114 5.54582C31.9388 4.88115 33.4737 2.35539 38.1447 2.05998C38.1447 2.05998 40.4281 1.92704 40.8165 2.87974H40.8828C40.8828 2.87974 43.0999 2.88713 43.0525 4.42326C43.0241 5.96678 40.5891 7.88695 38.0878 8.54424ZM33.7295 5.12486C33.2558 5.71568 33.2368 6.07017 33.4548 6.31389C33.9948 5.67137 34.9802 4.65959 36.4298 3.89152C35.3118 3.96537 34.3738 4.34202 33.7295 5.12486ZM40.1817 4.13524C38.7132 4.3051 36.4393 5.84123 35.3591 7.09673C37.0172 7.33306 39.9448 7.24443 41.2429 5.18394C41.2334 5.18394 41.8587 3.90629 40.1817 4.13524ZM80.0508 16.0329C79.1697 17.2293 76.6968 19.7255 73.3996 19.1421C72.3101 21.2026 71.4005 23.2778 70.8794 26.3944C70.8794 26.3944 70.7657 27 70.1214 26.7858C69.4866 26.6086 68.4255 25.7814 68.217 24.6367C67.9896 23.1301 68.8518 20.5822 70.6046 17.665C70.093 17.0151 69.7424 16.0846 70.0456 14.7626C70.0456 14.7626 70.4909 12.3107 73.646 10.0951C73.646 10.0951 74.0249 9.83666 74.2429 9.9179C74.4892 9.99913 74.3755 10.7967 74.1765 11.1808C73.9776 11.5648 72.5659 13.4702 72.5659 13.4702C72.5659 13.4702 71.6847 14.7552 71.9311 15.767C73.5891 13.7804 77.36 9.77019 79.7002 11.0331C80.4866 11.4688 80.8467 12.4215 80.8467 13.4481C80.8372 14.3564 80.5624 15.3165 80.0508 16.0329ZM79.3686 12.8868C79.3686 12.8868 79.236 12.0965 78.2506 12.968C77.3979 13.6992 75.863 15.0802 74.6218 16.9487C75.9199 16.8379 77.1705 16.284 77.5495 16.0034C78.1653 15.575 79.596 14.4229 79.3686 12.8868ZM33.3695 13.8912C33.1895 15.6784 32.3083 18.6842 26.0646 20.1686C21.9431 21.1361 18.0491 20.6708 15.9268 20.2499C15.8794 20.9072 15.7846 21.1878 15.652 21.2986C15.472 21.4389 14.1266 22.0445 13.3876 21.1878C13.056 20.7816 12.8854 20.0431 12.7907 19.3858C8.01548 17.6724 5.81737 15.2057 5.7321 15.095C5.62788 15.0137 4.5383 14.1275 5.62788 13.0419C6.65114 12.0596 9.99567 11.0774 13.0086 10.6786C13.1128 8.66979 13.416 7.15581 13.776 6.46159C14.2119 5.6566 14.7614 6.38035 15.2351 6.92686C15.633 7.33305 15.8699 9.08336 15.8889 10.4792C17.8596 10.4053 19.025 10.5161 21.2231 10.8263C24.0844 11.2325 25.9983 12.3698 25.8277 13.6622C25.7045 14.9325 24.2076 15.4568 23.6391 15.4938C23.0422 15.5307 22.1137 15.1984 22.1137 15.1984C21.4789 14.962 22.0663 14.7552 22.8337 14.4968C23.6675 14.1792 23.478 13.8542 23.478 13.8542C23.1653 13.1453 19.4513 12.6504 15.7562 12.6504C15.7373 14.2383 15.8415 16.8748 15.8889 18.4109C18.4754 18.795 20.4082 18.7211 20.4082 18.7211C20.4082 18.7211 29.8449 18.5143 30.1292 13.8173C30.4134 9.12029 20.7209 4.60051 13.5486 3.16777C6.38585 1.70548 2.33072 2.72465 1.98016 2.86497C1.60118 3.01267 1.95174 3.05699 1.95174 3.05699C2.31257 3.10831 2.66746 3.18241 3.01289 3.27854C3.72349 3.45579 3.17396 3.74382 3.17396 3.74382C1.95174 4.04661 0.577925 3.85459 0.312637 3.41886C0.0473481 2.98313 0.492654 2.59172 1.00428 2.03044C1.51591 1.43961 2.07491 1.46177 2.07491 1.46177C10.9337 -0.931056 21.7252 3.39671 21.7252 3.39671C31.8346 7.39214 33.559 12.0744 33.3695 13.8912ZM6.63219 13.6475C5.62788 14.0315 6.31953 14.5854 6.31953 14.5854C8.20497 16.1658 10.5262 17.1555 12.7338 17.7684C12.9896 15.0433 12.9517 14.0832 12.9802 12.7095C9.53141 12.8942 7.54175 13.3225 6.63219 13.6475Z" fill="white"/>
</svg>
